<svg xmlns="http://www.w3.org/2000/svg" viewBox="0 0 536.46 216.55"><defs><style>.cls-1{fill:#c5a1fe;}.cls-2{fill:#1c1c1c;}</style></defs><g id="Calque_2" data-name="Calque 2"><path id="Tracé_1111094-2" data-name="Tracé 1111094-2" class="cls-1" d="M277.73,96.64c0-20.66-16.61-36.29-37.05-37.9L83,45.8l21.35,29.64L47.83,96.64l56.51,21.19L83,147.47l157.69-12.94c20.44-2.06,37.05-17.25,37.05-37.89"/><g id="Groupe_38396-2" data-name="Groupe 38396-2"><path id="Tracé_1110999-8" data-name="Tracé 1110999-8" class="cls-2" d="M237.84,119.48c-14.38,0-21.68-6.93-21.68-20.6l-.46-24.56h13.7L229,97.54c0,6.37,3.37,10.16,9,10.16s9-3.57,9-9.79l-.45-23.58h13.7l-.46,24.17c0,14.13-7.18,21-21.95,21"/><path id="Tracé_1111000-8" data-name="Tracé 1111000-8" class="cls-2" d="M302.91,118.85,281.2,93.16l2,25.69H270.17V74.32h11.59l21,24.75-2.05-24.75h13.07v44.53Z"/><rect id="Rectangle_34108-8" data-name="Rectangle 34108-8" class="cls-2" x="324.33" y="74.45" width="12.79" height="44.52"/><path id="Tracé_1111001-8" data-name="Tracé 1111001-8" class="cls-2" d="M361.33,119V83.67l-14.05,1V74.46h40.9v10.2l-14.06-1V119Z"/><path id="Tracé_1111002-8" data-name="Tracé 1111002-8" class="cls-2" d="M397.68,119V74.45h37.55V84.8l-25-1v8.56h23.34v8.35H410.19v8.9l25.38-1V119Z"/><g id="Groupe_38307-8" data-name="Groupe 38307-8"><path id="Tracé_1111003-8" data-name="Tracé 1111003-8" class="cls-2" d="M461.77,74.45h-16.7V119h16.15c17.17,0,27.41-8.42,27.41-22.53v-.13C488.63,82.42,478.84,74.45,461.77,74.45Zm13.94,22.33c0,7.4-4.83,11.47-13.6,11.47h-4.25V85.18h4.25c8.77,0,13.6,4.07,13.6,11.47Z"/></g><path id="Tracé_1111004-8" data-name="Tracé 1111004-8" class="cls-2" d="M130.43,118.85l1-19.2L113.92,74.32H130l7.59,13.84,8-13.84h15.76L143.78,99.65l1.05,19.2Z"/><path id="Tracé_1111005-8" data-name="Tracé 1111005-8" class="cls-2" d="M184,119.66c-13.57,0-24.19-10.08-24.19-22.94v-.14c0-12.94,10.68-23.07,24.33-23.07s24.2,10.07,24.2,22.94v.14c0,12.94-10.69,23.07-24.34,23.07m0-35.19c-6.42,0-11.27,5.15-11.27,12v.14c0,6.91,4.9,12.12,11.41,12.12s11.27-5.16,11.27-12v-.13c0-6.91-4.9-12.12-11.41-12.12"/></g><path class="cls-2" d="M398.12,181.48V143.39h6.6l.49,8.53-.92-1a10.7,10.7,0,0,1,1.8-4.18,9.3,9.3,0,0,1,3.35-2.87,9.82,9.82,0,0,1,4.56-1.05,10.56,10.56,0,0,1,5.85,1.67,11.22,11.22,0,0,1,4,4.75,19.61,19.61,0,0,1,0,15,11.36,11.36,0,0,1-4.1,4.8,10.75,10.75,0,0,1-5.93,1.66,8.7,8.7,0,0,1-5.87-2,9.94,9.94,0,0,1-3.19-5l.69-1.13v18.83Zm13.58-16.36a5.63,5.63,0,0,0,4.64-2.12,9.81,9.81,0,0,0,1.69-6.2,10,10,0,0,0-1.64-6.19,5.45,5.45,0,0,0-4.59-2.12,5.64,5.64,0,0,0-3.3,1,6.62,6.62,0,0,0-2.22,2.84,11.17,11.17,0,0,0-.81,4.48,11.85,11.85,0,0,0,.76,4.43,6.12,6.12,0,0,0,2.17,2.89A5.53,5.53,0,0,0,411.7,165.12Z"/><path class="cls-2" d="M448,153.1a4.8,4.8,0,0,0-1.31-3.59,4.73,4.73,0,0,0-3.46-1.29,6,6,0,0,0-3.49,1,5.93,5.93,0,0,0-2.2,3.38l-6.28-1.93a9.69,9.69,0,0,1,4-5.69,14.29,14.29,0,0,1,8.29-2.15,16,16,0,0,1,6.17,1.1,9,9,0,0,1,4.1,3.3,9.68,9.68,0,0,1,1.48,5.53v10.89c0,1.36.64,2,1.93,2a5.39,5.39,0,0,0,1.72-.27l-.43,4.56a7.86,7.86,0,0,1-3.49.7,8.49,8.49,0,0,1-3.38-.65,5.17,5.17,0,0,1-2.36-2,5.91,5.91,0,0,1-.86-3.3v-.21l1.29-.21a6.11,6.11,0,0,1-1.77,3.46,9.77,9.77,0,0,1-3.52,2.17,13.15,13.15,0,0,1-9-.08,6.75,6.75,0,0,1-3.06-2.44,7.07,7.07,0,0,1-1.07-4,6.59,6.59,0,0,1,1.93-4.91,10.49,10.49,0,0,1,5.52-2.6l10.09-2-.05,4.56-6.44,1.29a8,8,0,0,0-2.76,1,2.21,2.21,0,0,0-.94,2,2.35,2.35,0,0,0,1,2,4.09,4.09,0,0,0,2.39.7,9,9,0,0,0,2.2-.27,6,6,0,0,0,1.93-.86,3.94,3.94,0,0,0,1.34-1.61,5.76,5.76,0,0,0,.48-2.47Z"/><path class="cls-2" d="M488.09,143.39l-10.84,28.49a22.26,22.26,0,0,1-2.87,5.79,9.54,9.54,0,0,1-3.65,3.11,11.36,11.36,0,0,1-4.9,1,13.62,13.62,0,0,1-3.84-.51,12,12,0,0,1-3-1.32l1.56-5.31a6.6,6.6,0,0,0,2.14,1.16,8.81,8.81,0,0,0,2.58.34,5.06,5.06,0,0,0,2.6-.64,4.94,4.94,0,0,0,1.85-2.57l.91-2.31-3-7-8.21-20.22h8.16l5.09,16.09,1.4,5.37,1.66-5.69,4.88-15.77Z"/></g></svg>